<?xml version="1.0" encoding="utf-8"?>
<!-- Generator: Adobe Illustrator 20.1.0, SVG Export Plug-In . SVG Version: 6.00 Build 0)  -->
<svg version="1.1" id="Layer_2" xmlns="http://www.w3.org/2000/svg" xmlns:xlink="http://www.w3.org/1999/xlink" x="0px" y="0px"
	 viewBox="0 0 16 16" style="enable-background:new 0 0 16 16;" xml:space="preserve">
<path d="M9.2,1C7.5,1,6,2.5,6,4.2V10c0,1.1,0.9,2,2,2s2-0.9,2-2V5H8.5v5c0,0.3-0.2,0.5-0.5,0.5S7.5,10.3,7.5,10V4.2
	c0-1,0.8-1.8,1.8-1.8S11,3.3,11,4.2v6.2c0,1.7-1.3,3-3,3s-3-1.3-3-3V5H3.5v5.5C3.5,13,5.5,15,8,15s4.5-2,4.5-4.5V4.2
	C12.5,2.5,11,1,9.2,1z"/>
</svg>
