<?xml version="1.0" encoding="utf-8"?>
<!-- Generator: Adobe Illustrator 20.1.0, SVG Export Plug-In . SVG Version: 6.00 Build 0)  -->
<svg version="1.1" id="Layer_2" xmlns="http://www.w3.org/2000/svg" xmlns:xlink="http://www.w3.org/1999/xlink" x="0px" y="0px"
	 viewBox="0 0 16 16" style="enable-background:new 0 0 16 16;" xml:space="preserve">
<path d="M10,1H5C3.9,1,3,1.9,3,3v9c0,1.1,0.9,2,2,2h6c1.1,0,2-0.9,2-2V4L10,1z M11.5,12c0,0.3-0.2,0.5-0.5,0.5H5
	c-0.3,0-0.5-0.2-0.5-0.5V3c0-0.3,0.2-0.5,0.5-0.5h3V4c0,1.1,0.9,2,2,2h1.5V12z"/>
</svg>
