<?xml version="1.0" encoding="utf-8"?>
<!-- Generator: Adobe Illustrator 20.1.0, SVG Export Plug-In . SVG Version: 6.00 Build 0)  -->
<svg version="1.1" id="Layer_2" xmlns="http://www.w3.org/2000/svg" xmlns:xlink="http://www.w3.org/1999/xlink" x="0px" y="0px"
	 viewBox="0 0 16 16" style="enable-background:new 0 0 16 16;" xml:space="preserve">
<path d="M2,6.2C1,6.2,0.2,7,0.2,8S1,9.8,2,9.8S3.8,9,3.8,8S3,6.2,2,6.2z M14,6.2c-1,0-1.8,0.8-1.8,1.8S13,9.8,14,9.8S15.8,9,15.8,8
	S15,6.2,14,6.2z M8,6.2C7,6.2,6.2,7,6.2,8S7,9.8,8,9.8S9.8,9,9.8,8S9,6.2,8,6.2z"/>
</svg>
