<?xml version="1.0" encoding="utf-8"?>
<!-- Generator: Adobe Illustrator 20.1.0, SVG Export Plug-In . SVG Version: 6.00 Build 0)  -->
<svg version="1.1" id="Layer_7" xmlns="http://www.w3.org/2000/svg" xmlns:xlink="http://www.w3.org/1999/xlink" x="0px" y="0px"
	 viewBox="0 0 16 16" style="enable-background:new 0 0 16 16;" xml:space="preserve">
<path d="M8,3v2h1.6L6.3,8.3l1.4,1.4L11,6.4V8h2V3H8z M11.5,11c0,0.3-0.2,0.5-0.5,0.5H5c-0.3,0-0.5-0.2-0.5-0.5V5
	c0-0.3,0.2-0.5,0.5-0.5h2V3H5C3.9,3,3,3.9,3,5v6c0,1.1,0.9,2,2,2h6c1.1,0,2-0.9,2-2V9h-1.5V11z"/>
</svg>
