<?xml version="1.0" encoding="utf-8"?>
<!-- Generator: Adobe Illustrator 20.1.0, SVG Export Plug-In . SVG Version: 6.00 Build 0)  -->
<svg version="1.1" id="Layer_1" xmlns="http://www.w3.org/2000/svg" xmlns:xlink="http://www.w3.org/1999/xlink" x="0px" y="0px"
	 viewBox="0 0 16 16" style="enable-background:new 0 0 16 16;" xml:space="preserve">
<path d="M6,6h4V5H6V6z M6,8h2V7H6V8z M11,2H5C3.9,2,3,2.9,3,4v8c0,1.1,0.9,2,2,2h5l3-3V4C13,2.9,12.1,2,11,2z M11.5,9H10
	c-1.1,0-2,0.9-2,2v1.5H5c-0.3,0-0.5-0.2-0.5-0.5V4c0-0.3,0.2-0.5,0.5-0.5h6c0.3,0,0.5,0.2,0.5,0.5V9z"/>
</svg>
